Coordinates
version=1
nRows=27
nColumns=12
inDegrees=yes

Units are S.I. units (second, meters, Newtons, ...)
Angles are in degrees

endheader
time	SC_y	SC_z	SC_x	AC_y	AC_z	AC_x	GH_y	GH_z	GH_yy	EL_x	PS_y
       0.0              -58.29          6.422          18.32          63.21         -7.679         -5.368         -80.76          54.49           40.9          115.5          75.47
   0.04034              -58.29          6.424          18.33          63.21         -7.677         -5.368         -80.75          54.48           40.9          115.5          75.47
   0.08067              -58.29          6.426          18.34          63.21         -7.675         -5.368         -80.75          54.47          40.91          115.5          75.48
     0.121              -58.29          6.428          18.34           63.2         -7.673         -5.367         -80.75          54.47          40.91          115.5          75.49
    0.1613              -58.29           6.43          18.35           63.2         -7.671         -5.367         -80.75          54.46          40.92          115.5          75.49
    0.2017              -58.28          6.432          18.36          63.19         -7.668         -5.367         -80.75          54.45          40.92          115.5           75.5
     0.242              -58.28          6.435          18.37          63.19         -7.666         -5.367         -80.75          54.44          40.93          115.4          75.51
    0.2824              -58.28          6.437          18.37          63.18         -7.663         -5.367         -80.75          54.43          40.94          115.4          75.52
    0.3227              -58.28           6.44          18.38          63.17          -7.66         -5.367         -80.75          54.42          40.94          115.4          75.52
     0.363              -58.27          6.443          18.39          63.17         -7.657         -5.367         -80.75          54.41          40.95          115.4          75.53
    0.4034              -58.27          6.446           18.4          63.16         -7.654         -5.366         -80.75           54.4          40.96          115.4          75.54
    0.4437              -58.27           6.45          18.42          63.15          -7.65         -5.366         -80.75          54.39          40.97          115.3          75.56
     0.484              -58.26          6.454          18.43          63.14         -7.646         -5.366         -80.75          54.38          40.98          115.3          75.57
    0.5244              -58.26          6.458          18.44          63.13         -7.642         -5.366         -80.75          54.36          40.99          115.3          75.58
    0.5647              -58.25          6.462          18.46          63.12         -7.637         -5.365         -80.74          54.35           41.0          115.2          75.59
     0.605              -58.25          6.467          18.47          63.11         -7.632         -5.365         -80.74          54.33          41.01          115.2          75.61
    0.6454              -58.24          6.472          18.49           63.1         -7.627         -5.365         -80.74          54.31          41.03          115.2          75.63
    0.6857              -58.24          6.478          18.51          63.09         -7.621         -5.365         -80.74          54.29          41.04          115.1          75.64
    0.7261              -58.23          6.484          18.53          63.07         -7.615         -5.364         -80.74          54.27          41.06          115.1          75.66
    0.7664              -58.23          6.491          18.55          63.06         -7.608         -5.364         -80.74          54.25          41.07          115.0          75.68
    0.8067              -58.22          6.498          18.58          63.04           -7.6         -5.363         -80.74          54.22          41.09          115.0          75.71
    0.8471              -58.21          6.507           18.6          63.02         -7.592         -5.363         -80.73          54.19          41.12          114.9          75.73
    0.8874               -58.2          6.516          18.63           63.0         -7.583         -5.363         -80.73          54.16          41.14          114.8          75.76
    0.9277              -58.19          6.526          18.67          62.98         -7.572         -5.362         -80.73          54.12          41.16          114.8          75.79
    0.9681              -58.18          6.537           18.7          62.96         -7.561         -5.361         -80.73          54.09          41.19          114.7          75.83
     1.008              -58.17          6.549          18.74          62.93         -7.548         -5.361         -80.72          54.04          41.23          114.6          75.87
     1.049              -58.15          6.563          18.79           62.9         -7.534          -5.36         -80.72          53.99          41.26          114.5          75.91
